<?xml version="1.0" encoding="UTF-8"?>
<svg version="1.1" xmlns="http://www.w3.org/2000/svg" width="34" height="45">
<path d="M0 0 C11.22 0 22.44 0 34 0 C34 14.85 34 29.7 34 45 C22.78 45 11.56 45 0 45 C0 30.15 0 15.3 0 0 Z " fill="#EBEBEB" transform="translate(0,0)"/>
<path d="M0 0 C2.64 0 5.28 0 8 0 C8 10.89 8 21.78 8 33 C5.36 33 2.72 33 0 33 C0 22.11 0 11.22 0 0 Z " fill="#010101" transform="translate(25,0)"/>
<path d="M0 0 C2.64 0 5.28 0 8 0 C8.02465392 4.53897705 8.04283789 9.07791543 8.05493164 13.61694336 C8.0599714 15.16219766 8.0668032 16.70744716 8.07543945 18.25268555 C8.08752076 20.46925029 8.09323173 22.68575218 8.09765625 24.90234375 C8.10281754 25.5971434 8.10797882 26.29194305 8.11329651 27.00779724 C8.11349277 28.6722933 8.06189129 30.33665499 8 32 C7.505 32.495 7.505 32.495 7 33 C4.69 33 2.38 33 0 33 C0 22.11 0 11.22 0 0 Z " fill="#010101" transform="translate(1,0)"/>
<path d="M0 0 C2.64 0 5.28 0 8 0 C8 10.56 8 21.12 8 32 C5.36 32 2.72 32 0 32 C0 21.44 0 10.88 0 0 Z " fill="#010101" transform="translate(13,12)"/>
<path d="M0 0 C5.28 0 10.56 0 16 0 C16 10.56 16 21.12 16 32 C15.67 32 15.34 32 15 32 C14.67 24.74 14.34 17.48 14 10 C13.34 10.66 12.68 11.32 12 12 C9.36 12 6.72 12 4 12 C4 22.56 4 33.12 4 44 C3.67 44 3.34 44 3 44 C3 34.1 3 24.2 3 14 C2.34 14 1.68 14 1 14 C0.67 14.66 0.34 15.32 0 16 C0 10.72 0 5.44 0 0 Z " fill="#E2E2E2" transform="translate(9,0)"/>
<path d="M0 0 C0.66 0 1.32 0 2 0 C2 8.25 2 16.5 2 25 C1.34 25 0.68 25 0 25 C-0.33 25.66 -0.66 26.32 -1 27 C-1 26.01 -1 25.02 -1 24 C-0.34 24 0.32 24 1 24 C1 23.34 1 22.68 1 22 C0.34 21.67 -0.32 21.34 -1 21 C-1 20.67 -1 20.34 -1 20 C-1.33 19.34 -1.66 18.68 -2 18 C-1.93637744 15.31628474 -1.81206937 12.67509201 -1.625 10 C-1.58117188 9.26265625 -1.53734375 8.5253125 -1.4921875 7.765625 C-1.13058036 2.26116071 -1.13058036 2.26116071 0 0 Z " fill="#F3F3F3" transform="translate(10,14)"/>
<path d="M0 0 C0.763125 0.20625 1.52625 0.4125 2.3125 0.625 C2.6425 1.945 2.9725 3.265 3.3125 4.625 C2.6525 4.625 1.9925 4.625 1.3125 4.625 C1.3125 3.965 1.3125 3.305 1.3125 2.625 C0.714375 2.975625 0.11625 3.32625 -0.5 3.6875 C-2.6875 4.625 -2.6875 4.625 -5.6875 3.625 C-5.6875 2.965 -5.6875 2.305 -5.6875 1.625 C-2.6875 -0.375 -2.6875 -0.375 0 0 Z " fill="#F9F9F9" transform="translate(29.6875,33.375)"/>
</svg>
